<svg xmlns="http://www.w3.org/2000/svg" version="1.1" xmlns:xlink="http://www.w3.org/1999/xlink" xmlns:svgjs="http://svgjs.dev/svgjs" width="100%" height="100%" viewBox="0 0 1000 600">
    <rect width="1000" height="600" x="0" y="0" fill="#ffffff" />
    <g>
        <circle r="166.66666666666666" cx="438.14152018229163" cy="460.36374044934905" fill="#3273dc" transform="matrix(0.4604478034751218,0,0,0.46044780347512193,0,88.02652135736881)" />
        <path d="M363.9037725765301 385.3637667848745Q388.4454224870619 385.3637667848745 406.41074720841334 394.51083727527975Q424.37607192976486 403.657907765685 433.9416358412998 420.63678370865944Q443.53709214005823 437.6455520388575 443.53709214005823 460.69258258821185L443.53709214005823 460.69258258821185Q443.53709214005823 483.70972075034274 433.9416358412998 500.5989195316466Q424.37607192976486 517.4881183129503 406.41074720841334 526.4259420927908Q388.4454224870619 535.3637658726312 363.9037725765301 535.3637658726312L363.9037725765301 535.3637658726312L317.18197134612683 535.3637658726312L317.18197134612683 385.3637667848745L363.9037725765301 385.3637667848745ZM363.9037725765301 519.2218767719161Q392.9591729578174 519.2218767719161 408.2341828290497 503.8272973517896Q423.50919270028203 488.4327179316631 423.50919270028203 460.69258258821185L423.50919270028203 460.69258258821185Q423.50919270028203 432.7133081469723 408.11461328015554 416.9899124673868Q392.7499262472526 401.26651678780127 363.9037725765301 401.26651678780127L363.9037725765301 401.26651678780127L336.7913773647734 401.26651678780127L336.7913773647734 519.2218767719161L363.9037725765301 519.2218767719161ZM558.6825677251597 400.8480233666716L485.9244972230473 518.3549975424332L559.1010611462893 518.3549975424332L559.1010611462893 535.3637658726312L462.6981123503516 535.3637658726312L462.6981123503516 519.8795092908341L535.4262904652403 402.34264272784895L463.5350991926109 402.34264272784895L463.5350991926109 385.3637667848745L558.6825677251597 385.3637667848745L558.6825677251597 400.8480233666716Z " fill="#ffffff" transform="matrix(0.4604478034751218,0,0,0.46044780347512193,0,88.02652135736881)" />
        <path d="M783.4873384026664 533.555866325005L761.6534798204889 533.555866325005L728.4159498769193 476.481881852867L706.3873944666203 476.481881852867L706.3873944666203 533.555866325005L688.1415202883929 533.555866325005L688.1415202883929 393.98605439460124L733.1999290821861 393.98605439460124Q749.0259998251913 393.98605439460124 759.9568360325744 399.3819379168209Q770.8598584073688 404.77782143904057 776.2557419295885 414.0120138585093Q781.679439284397 423.21839244538927 781.679439284397 435.03927129561276L781.679439284397 435.03927129561276Q781.679439284397 449.44683657659107 773.3631033403574 460.4611142817405Q765.0467673963177 471.47539198689 748.4419093408272 475.09119022342895L748.4419093408272 475.09119022342895L783.4873384026664 533.555866325005ZM706.3873944666203 409.0055239925323L706.3873944666203 461.8518059111786L733.1999290821861 461.8518059111786Q748.0247018519958 461.8518059111786 755.4509951531951 454.56458177292313Q762.8494746218056 447.24954380207896 762.8494746218056 435.03927129561276L762.8494746218056 435.03927129561276Q762.8494746218056 422.6064881284365 755.5344366509614 415.79209914419Q748.2193986801171 409.0055239925323 733.1999290821861 409.0055239925323L733.1999290821861 409.0055239925323L706.3873944666203 409.0055239925323ZM910.0402766815298 474.4792859064762Q910.0402766815298 479.6804726005745 909.4283723645772 485.49356361162563L909.4283723645772 485.49356361162563L821.7313582122131 485.49356361162563Q822.7326561854085 501.7090280108734 832.8290774151287 510.8319650999871Q842.9533124774379 519.927088356512 857.3608777584161 519.927088356512L857.3608777584161 519.927088356512Q869.1817566086397 519.927088356512 877.1086988964366 514.4199495039372Q885.0078273516448 508.9128106513625 888.2064180993523 499.70643206448256L888.2064180993523 499.70643206448256L907.8429839070177 499.70643206448256Q903.4205845254047 515.5325028074877 890.2090140457432 525.4342272090867Q876.9974435660815 535.3637654432745 857.3608777584161 535.3637654432745L857.3608777584161 535.3637654432745Q841.7573176761211 535.3637654432745 829.4357898392999 528.3546796309066Q817.1142620024787 521.3455938185389 810.1051761901109 508.4121616647648Q803.096090377743 495.50654334357966 803.096090377743 478.4844777992578L803.096090377743 478.4844777992578Q803.096090377743 461.46241225493594 809.9104793619896 448.640235431517Q816.724868346236 435.8180586080981 829.0463961830573 428.9202281260853Q841.3401101872897 422.02239764407256 857.3608777584161 422.02239764407256L857.3608777584161 422.02239764407256Q872.9922516733 422.02239764407256 885.0078273516448 428.80897279573026Q897.0234030299896 435.6233617799768 903.5318398557598 447.55549596055533Q910.0402766815298 459.4598163085451 910.0402766815298 474.4792859064762L910.0402766815298 474.4792859064762ZM891.2103120189386 470.6687908418159Q891.2103120189386 460.26641745361917 886.621029641793 452.7566826546537Q882.0039334320586 445.2469478556881 874.1048049768505 441.3251974606728Q866.1778626890534 437.43126089824625 856.5820904459308 437.43126089824625L856.5820904459308 437.43126089824625Q842.7586156493165 437.43126089824625 833.0515880758389 446.24824582888357Q823.3167466697724 455.06523075952083 821.9260550403344 470.6687908418159L821.9260550403344 470.6687908418159L891.2103120189386 470.6687908418159ZM972.927352164719 535.3637654432745Q960.2998721694214 535.3637654432745 950.2868924374674 531.0526213920165Q940.2739127055133 526.7414773407585 934.4608216944622 519.0370457136717Q928.675544516 511.3326140865848 928.0636401990471 501.3196343546307L928.0636401990471 501.3196343546307L946.8936048616384 501.3196343546307Q947.7002060067125 509.52471496831527 954.5980364887254 514.7259016624137Q961.4958669707381 519.927088356512 972.7326553365976 519.927088356512L972.7326553365976 519.927088356512Q983.1350287247943 519.927088356512 989.1428165639668 515.3378059793664Q995.1506044031391 510.72070976963204 995.1506044031391 503.7116239572642L995.1506044031391 503.7116239572642Q995.1506044031391 496.50784131677506 988.7534229077241 493.0032984105911Q982.3284275797203 489.4987555044072 968.9221602719374 486.1054679285784L968.9221602719374 486.1054679285784Q956.7118877654711 482.87906334828205 948.9796423057956 479.5970311028082Q941.2752106787087 476.28718502474567 935.768071826134 469.7787481989755Q930.2609329735593 463.2703113732054 930.2609329735593 452.6454273242986L930.2609329735593 452.6454273242986Q930.2609329735593 444.2456498824927 935.2674228395363 437.2365640701249Q940.2739127055133 430.22747825775707 949.4802912923933 426.1110310346204Q958.7144837118619 422.02239764407256 970.5075487294968 422.02239764407256L970.5075487294968 422.02239764407256Q988.7534229077241 422.02239764407256 999.9623974409949 431.2287762309525Q1011.1713719742656 440.4351548178325 1011.9779731193396 456.4559223889589L1011.9779731193396 456.4559223889589L993.7599127737011 456.4559223889589Q993.1480084567484 447.83363428644293 986.8342684590996 442.6324475923446Q980.5205284614508 437.43126089824625 969.9234582451327 437.43126089824625L969.9234582451327 437.43126089824625Q960.1051753413001 437.43126089824625 954.2920843302489 441.6311496191492Q948.4789933191978 445.83103834005215 948.4789933191978 452.6454273242986L948.4789933191978 452.6454273242986Q948.4789933191978 458.06912467910706 951.9835362253818 461.573667585291Q955.4880791315657 465.07821049147486 960.8005211560192 467.164247935632Q966.1129631804724 469.2780992123778 975.5140385954737 471.8647856431326L975.5140385954737 471.8647856431326Q987.3349174456973 475.09119022342895 994.7612107468965 478.17852564078146Q1002.159690215507 481.2936748907227 1007.4721322399604 487.4961595580164Q1012.7845742644138 493.69864422531015 1012.9792710925351 503.7116239572642L1012.9792710925351 503.7116239572642Q1012.9792710925351 512.7233057160229 1007.9727812265581 519.927088356512Q1002.9662913605811 527.1586848295899 993.8433542714674 531.2473182201378Q984.7482310149426 535.3637654432745 972.927352164719 535.3637654432745L972.927352164719 535.3637654432745ZM1138.7256082263245 474.4792859064762Q1138.7256082263245 479.6804726005745 1138.1415177419606 485.49356361162563L1138.1415177419606 485.49356361162563L1050.4166897570076 485.49356361162563Q1051.417987730203 501.7090280108734 1061.5422227925121 510.8319650999871Q1071.6386440222325 519.927088356512 1086.0740231357995 519.927088356512L1086.0740231357995 519.927088356512Q1097.8949019860231 519.927088356512 1105.7940304412311 514.4199495039372Q1113.6931588964394 508.9128106513625 1116.9195634767357 499.70643206448256L1116.9195634767357 499.70643206448256L1136.5283154518124 499.70643206448256Q1132.1337299027882 515.5325028074877 1118.9221594231265 525.4342272090867Q1105.6827751108763 535.3637654432745 1086.0740231357995 535.3637654432745L1086.0740231357995 535.3637654432745Q1070.4426492209159 535.3637654432745 1058.1211213840945 528.3546796309066Q1045.827407379862 521.3455938185389 1038.8183215674944 508.4121616647648Q1031.8092357551263 495.50654334357966 1031.8092357551263 478.4844777992578L1031.8092357551263 478.4844777992578Q1031.8092357551263 461.46241225493594 1038.5958109067842 448.640235431517Q1045.4101998910307 435.8180586080981 1057.7317277278519 428.9202281260853Q1070.053255564673 422.02239764407256 1086.0740231357995 422.02239764407256L1086.0740231357995 422.02239764407256Q1101.6775832180947 422.02239764407256 1113.6931588964394 428.80897279573026Q1125.7087345747843 435.6233617799768 1132.2171714005544 447.55549596055533Q1138.7256082263245 459.4598163085451 1138.7256082263245 474.4792859064762L1138.7256082263245 474.4792859064762ZM1119.923457396322 470.6687908418159Q1119.923457396322 460.26641745361917 1115.3063611865875 452.7566826546537Q1110.6892649768533 445.2469478556881 1102.790136521645 441.3251974606728Q1094.8910080664368 437.43126089824625 1085.2674219907253 437.43126089824625L1085.2674219907253 437.43126089824625Q1071.4439471941112 437.43126089824625 1061.7369196206337 446.24824582888357Q1052.029892047156 455.06523075952083 1050.611386585129 470.6687908418159L1050.611386585129 470.6687908418159L1119.923457396322 470.6687908418159ZM1155.9701844313565 478.28978097113645Q1155.9701844313565 461.46241225493594 1162.7567595830142 448.75149076187205Q1169.5711485672607 436.04056926880816 1181.5032827478392 429.03148345644036Q1193.407603095829 422.02239764407256 1208.0376790375176 422.02239764407256L1208.0376790375176 422.02239764407256Q1222.4452443184957 422.02239764407256 1233.0701283674025 428.2248823113663Q1243.6671985837206 434.42736697866 1248.8683852778188 443.8284423936613L1248.8683852778188 443.8284423936613L1248.8683852778188 423.80248292975324L1267.3089562841676 423.80248292975324L1267.3089562841676 533.555866325005L1248.8683852778188 533.555866325005L1248.8683852778188 513.1405132048542Q1243.4725017555993 522.7362854479768 1232.764176208926 529.0500254456257Q1222.055850662253 535.3637654432745 1207.8151683768074 535.3637654432745L1207.8151683768074 535.3637654432745Q1193.2129062677077 535.3637654432745 1181.3920274174843 528.1599828027853Q1169.5711485672607 520.9283863297073 1162.7567595830142 507.9115126781671Q1155.9701844313565 494.8946390266269 1155.9701844313565 478.28978097113645L1155.9701844313565 478.28978097113645ZM1248.8683852778188 478.4844777992578Q1248.8683852778188 466.0795084646703 1243.861895411842 456.84531604520157Q1238.8554055458649 447.6389374583216 1230.344372773704 442.74370292269964Q1221.833340001543 437.8206545544889 1211.6256634414676 437.8206545544889L1211.6256634414676 437.8206545544889Q1201.4179868813922 437.8206545544889 1193.0182094395864 442.6324475923446Q1184.5906181651917 447.4442406302003 1179.5841282992146 456.65061921708025Q1174.5776384332378 465.8569978039602 1174.5776384332378 478.28978097113645L1174.5776384332378 478.28978097113645Q1174.5776384332378 490.88944713384524 1179.5841282992146 500.2070810510803Q1184.5906181651917 509.52471496831527 1193.0182094395864 514.4199495039372Q1201.4179868813922 519.342997872148 1211.6256634414676 519.342997872148L1211.6256634414676 519.342997872148Q1221.833340001543 519.342997872148 1230.344372773704 514.4199495039372Q1238.8554055458649 509.52471496831527 1243.861895411842 500.2070810510803Q1248.8683852778188 490.88944713384524 1248.8683852778188 478.4844777992578L1248.8683852778188 478.4844777992578ZM1316.3725569707424 441.6311496191492Q1321.184350008598 432.2300742041479 1330.0847764370017 427.02888751004957Q1338.9852028654052 421.79988698336246 1351.807379688824 421.79988698336246L1351.807379688824 421.79988698336246L1351.807379688824 440.6298516459538L1346.9955866509686 440.6298516459538Q1316.3725569707424 440.6298516459538 1316.3725569707424 473.8673815895234L1316.3725569707424 473.8673815895234L1316.3725569707424 533.555866325005L1298.1544966251038 533.555866325005L1298.1544966251038 423.80248292975324L1316.3725569707424 423.80248292975324L1316.3725569707424 441.6311496191492ZM1366.020248141681 478.4844777992578Q1366.020248141681 461.46241225493594 1372.8346371259277 448.75149076187205Q1379.649026110174 436.04056926880816 1391.7758571188738 429.03148345644036Q1403.8748742949851 422.02239764407256 1419.506248209869 422.02239764407256L1419.506248209869 422.02239764407256Q1439.7269045018984 422.02239764407256 1452.8550334837937 431.8128667153165Q1465.9553486331001 441.6311496191492 1470.155237354003 459.07042265230245L1470.155237354003 459.07042265230245L1450.5464853789263 459.07042265230245Q1447.7372882874615 449.0574429203484 1439.6156491715433 443.24435190929734Q1431.5218238882137 437.43126089824625 1419.506248209869 437.43126089824625L1419.506248209869 437.43126089824625Q1403.8748742949851 437.43126089824625 1394.2791020518625 448.1395864449193Q1384.655515976151 458.84791199159235 1384.655515976151 478.4844777992578L1384.655515976151 478.4844777992578Q1384.655515976151 498.3157404350445 1394.2791020518625 509.1353213120726Q1403.8748742949851 519.927088356512 1419.506248209869 519.927088356512L1419.506248209869 519.927088356512Q1431.5218238882137 519.927088356512 1439.532207673777 514.336508006171Q1447.5425914593402 508.7181138232412 1450.5464853789263 498.3157404350445L1450.5464853789263 498.3157404350445L1470.155237354003 498.3157404350445Q1465.7606518049788 515.1431091512451 1452.5490813253173 525.2395303809653Q1439.3375108456557 535.3637654432745 1419.506248209869 535.3637654432745L1419.506248209869 535.3637654432745Q1403.8748742949851 535.3637654432745 1391.7758571188738 528.3546796309066Q1379.649026110174 521.3455938185389 1372.8346371259277 508.5234169951199Q1366.020248141681 495.701240171701 1366.020248141681 478.4844777992578L1366.020248141681 478.4844777992578ZM1548.8683835801971 421.79988698336246Q1561.2733529147847 421.79988698336246 1571.2863326467389 427.11232900781584Q1581.2993123786928 432.42477103226923 1587.0289618919778 443.049655081176Q1592.7307975726735 453.646725297494 1592.7307975726735 468.8608917235464L1592.7307975726735 468.8608917235464L1592.7307975726735 533.555866325005L1574.7074340551567 533.555866325005L1574.7074340551567 471.47539198689Q1574.7074340551567 455.06523075952083 1566.5023534414718 446.33168732664984Q1558.2694589951984 437.6259577263676 1544.0565905423414 437.6259577263676L1544.0565905423414 437.6259577263676Q1529.6490252613632 437.6259577263676 1521.1379924892021 446.6376394851262Q1512.6269597170415 455.64932124388486 1512.6269597170415 472.866083616328L1512.6269597170415 472.866083616328L1512.6269597170415 533.555866325005L1494.4088993714029 533.555866325005L1494.4088993714029 385.36376629208524L1512.6269597170415 385.36376629208524L1512.6269597170415 439.43385684463703Q1518.0228432392612 431.03407940283114 1527.5351739846174 426.4169831930968Q1537.0475047299738 421.79988698336246 1548.8683835801971 421.79988698336246L1548.8683835801971 421.79988698336246ZM1722.7048372599547 474.4792859064762Q1722.7048372599547 479.6804726005745 1722.0929329430019 485.49356361162563L1722.0929329430019 485.49356361162563L1634.3681049580493 485.49356361162563Q1635.3694029312446 501.7090280108734 1645.4936379935536 510.8319650999871Q1655.6178730558627 519.927088356512 1670.025438336841 519.927088356512L1670.025438336841 519.927088356512Q1681.8463171870644 519.927088356512 1689.745445642273 514.4199495039372Q1697.6723879300698 508.9128106513625 1700.8709786777772 499.70643206448256L1700.8709786777772 499.70643206448256L1720.479730652854 499.70643206448256Q1716.0851451038297 515.5325028074877 1702.8735746241682 525.4342272090867Q1689.6620041445065 535.3637654432745 1670.025438336841 535.3637654432745L1670.025438336841 535.3637654432745Q1654.3940644219574 535.3637654432745 1642.1003504177247 528.3546796309066Q1629.7788225809036 521.3455938185389 1622.7697367685357 508.4121616647648Q1615.760650956168 495.50654334357966 1615.760650956168 478.4844777992578L1615.760650956168 478.4844777992578Q1615.760650956168 461.46241225493594 1622.5750399404144 448.640235431517Q1629.361615092072 435.8180586080981 1641.6831429288936 428.9202281260853Q1654.0046707657148 422.02239764407256 1670.025438336841 422.02239764407256L1670.025438336841 422.02239764407256Q1685.656812251725 422.02239764407256 1697.6723879300698 428.80897279573026Q1709.6879636084145 435.6233617799768 1716.1964004341849 447.55549596055533Q1722.7048372599547 459.4598163085451 1722.7048372599547 474.4792859064762L1722.7048372599547 474.4792859064762ZM1703.8748725973637 470.6687908418159Q1703.8748725973637 460.26641745361917 1699.257776387629 452.7566826546537Q1694.6684940104838 445.2469478556881 1686.7415517226864 441.3251974606728Q1678.8424232674784 437.43126089824625 1669.2188371917669 437.43126089824625L1669.2188371917669 437.43126089824625Q1655.395362395153 437.43126089824625 1645.688334821675 446.24824582888357Q1635.9813072481975 455.06523075952083 1634.5906156187593 470.6687908418159L1634.5906156187593 470.6687908418159L1703.8748725973637 470.6687908418159ZM1764.9540489622832 441.6311496191492Q1769.765842000139 432.2300742041479 1778.6662684285425 427.02888751004957Q1787.566694856946 421.79988698336246 1800.388871680365 421.79988698336246L1800.388871680365 421.79988698336246L1800.388871680365 440.6298516459538L1795.5770786425092 440.6298516459538Q1764.9540489622832 440.6298516459538 1764.9540489622832 473.8673815895234L1764.9540489622832 473.8673815895234L1764.9540489622832 533.555866325005L1746.7359886166446 533.555866325005L1746.7359886166446 423.80248292975324L1764.9540489622832 423.80248292975324L1764.9540489622832 441.6311496191492ZM1860.2720532439675 535.3637654432745Q1847.64457324867 535.3637654432745 1837.6315935167163 531.0526213920165Q1827.6186137847621 526.7414773407585 1821.8333366062998 519.0370457136717Q1816.0202455952485 511.3326140865848 1815.4083412782957 501.3196343546307L1815.4083412782957 501.3196343546307L1834.2383059408871 501.3196343546307Q1835.0449070859613 509.52471496831527 1841.9427375679743 514.7259016624137Q1848.8683818825757 519.927088356512 1860.0773564158462 519.927088356512L1860.0773564158462 519.927088356512Q1870.479729804043 519.927088356512 1876.4875176432156 515.3378059793664Q1882.4953054823882 510.72070976963204 1882.4953054823882 503.7116239572642L1882.4953054823882 503.7116239572642Q1882.4953054823882 496.50784131677506 1876.098123986973 493.0032984105911Q1869.6731286589688 489.4987555044072 1856.266861351186 486.1054679285784L1856.266861351186 486.1054679285784Q1844.05658884472 482.87906334828205 1836.3521572176332 479.5970311028082Q1828.6199117579572 476.28718502474567 1823.1127729053828 469.7787481989755Q1817.605634052808 463.2703113732054 1817.605634052808 452.6454273242986L1817.605634052808 452.6454273242986Q1817.605634052808 444.2456498824927 1822.612123918785 437.2365640701249Q1827.6186137847621 430.22747825775707 1836.852806204231 426.1110310346204Q1846.059184791111 422.02239764407256 1857.8800636413343 422.02239764407256L1857.8800636413343 422.02239764407256Q1876.098123986973 422.02239764407256 1887.3070985202435 431.2287762309525Q1898.5160730535144 440.4351548178325 1899.3226741985886 456.4559223889589L1899.3226741985886 456.4559223889589L1881.10461385295 456.4559223889589Q1880.4927095359972 447.83363428644293 1874.1789695383482 442.6324475923446Q1867.893043373288 437.43126089824625 1857.2681593243815 437.43126089824625L1857.2681593243815 437.43126089824625Q1847.4498764205487 437.43126089824625 1841.6367854094979 441.6311496191492Q1835.8515082310355 445.83103834005215 1835.8515082310355 452.6454273242986L1835.8515082310355 452.6454273242986Q1835.8515082310355 458.06912467910706 1839.3560511372193 461.573667585291Q1842.8605940434031 465.07821049147486 1848.1452222352677 467.164247935632Q1853.4576642597212 469.2780992123778 1862.8865535073114 471.8647856431326L1862.8865535073114 471.8647856431326Q1874.679618524946 475.09119022342895 1882.1059118261455 478.17852564078146Q1889.5043912947558 481.2936748907227 1894.8168333192093 487.4961595580164Q1900.1292753436628 493.69864422531015 1900.3239721717841 503.7116239572642L1900.3239721717841 503.7116239572642Q1900.3239721717841 512.7233057160229 1895.317482305807 519.927088356512Q1890.31099243983 527.1586848295899 1881.1880553507162 531.2473182201378Q1872.0929320941914 535.3637654432745 1860.2720532439675 535.3637654432745L1860.2720532439675 535.3637654432745Z " fill="#3273dc" transform="matrix(0.4604478034751218,0,0,0.46044780347512193,0,88.02652135736881)" />
    </g>
</svg>